<svg xmlns="http://www.w3.org/2000/svg" viewBox="0 0 150 150">
  <defs>
    <style>
      .cls-1 {
        fill: #e5252b;
      }

      .cls-2 {
        fill: #fff;
      }

      .cls-3 {
        fill: #141414;
      }
    </style>
  </defs>
  <g id="Calque_1" data-name="Calque 1">
    <rect class="cls-1" width="150" height="150" rx="4"/>
  </g>
  <g id="Calque_2" data-name="Calque 2">
    <path class="cls-2" d="M133,75a58,58,0,0,1-96.62,43.26.6.6,0,0,1-.12-.11c-.84-.74-1.65-1.51-2.44-2.31a58,58,0,0,1,81.25-82.76l.77.75c.24.23.47.47.7.71A57.74,57.74,0,0,1,133,75Z"/>
    <circle class="cls-3" cx="75" cy="75" r="32"/>
    <circle class="cls-2" cx="65.15" cy="55.8" r="13.71"/>
  </g>
  <g id="Calque_6" data-name="Calque 6">
    <polygon class="cls-1" points="91.67 19 92.56 24.56 94.14 25.88 94.47 27.43 97.11 28.22 98.89 28.22 99.91 29.49 101.33 32.22 101.33 34.11 103.44 34.97 105.44 35.44 106.67 37.33 107.22 41 105.32 43.71 105.44 45.67 104.33 48 104.78 50.56 107.22 51.33 108.33 53.44 110.22 54 111 56 113.56 56 115.94 55.33 117.78 56 118.78 58.11 118.78 62.33 120 64.33 122.33 64.33 123.78 68 125.89 68.67 127 67.22 129 68 131.33 66 139.78 27.44 91.67 19"/>
  </g>
  <g id="Calque_7" data-name="Calque 7">
    <rect class="cls-2" x="94.5" y="18" width="3.25" height="3.25" transform="translate(4.73 55.29) rotate(-32.85)"/>
    <rect class="cls-2" x="102.4" y="15.07" width="3.12" height="3.12" transform="translate(13.13 69.87) rotate(-39.46)"/>
    <rect class="cls-2" x="98.8" y="20.72" width="3.31" height="3.31" transform="translate(54.97 114.7) rotate(-76.33)"/>
    <rect class="cls-2" x="101.08" y="26.59" width="3.25" height="3.25" transform="matrix(0.96, -0.27, 0.27, 0.96, -3.8, 28.33)"/>
    <rect class="cls-2" x="105.33" y="23.09" width="3.25" height="3.25"/>
    <rect class="cls-2" x="107.4" y="18.32" width="3.12" height="3.12" transform="translate(-0.15 38.89) rotate(-20.22)"/>
    <rect class="cls-2" x="113.38" y="15.91" width="3.43" height="3.43" transform="translate(76.88 127.62) rotate(-79.55)"/>
    <rect class="cls-2" x="107.14" y="28.57" width="3.51" height="3.51" transform="translate(62.44 133.38) rotate(-81.3)"/>
    <rect class="cls-2" x="112.47" y="22.41" width="3.31" height="3.31" transform="translate(63.77 129.27) rotate(-76.33)"/>
    <rect class="cls-2" x="112.57" y="29.23" width="3.12" height="3.12" transform="translate(-3.61 41.35) rotate(-20.22)"/>
    <rect class="cls-2" x="108.43" y="33.76" width="3.14" height="3.14" transform="translate(40.21 127.4) rotate(-70.64)"/>
    <rect class="cls-2" x="107.4" y="44.99" width="3.12" height="3.12" transform="translate(-9.37 40.54) rotate(-20.22)"/>
    <rect class="cls-2" x="111.25" y="60.11" width="2.5" height="2.5" transform="translate(-14.27 42.67) rotate(-20.22)"/>
    <rect class="cls-2" x="115.63" y="41.94" width="2.93" height="2.93" transform="matrix(0.87, -0.5, 0.5, 0.87, -6.01, 64.36)"/>
    <rect class="cls-2" x="109.79" y="39.79" width="2.93" height="2.93" transform="translate(-5.72 61.15) rotate(-30)"/>
    <rect class="cls-2" x="118.37" y="37.3" width="3.25" height="3.25" transform="translate(-6.03 33.31) rotate(-15.42)"/>
    <rect class="cls-2" x="123.58" y="39.46" width="2.93" height="2.93" transform="translate(27.08 128.76) rotate(-60)"/>
    <rect class="cls-2" x="119.72" y="43.8" width="3.49" height="3.49" transform="translate(1.87 95.81) rotate(-43.35)"/>
    <rect class="cls-2" x="124.14" y="55.29" width="3.31" height="3.31" transform="translate(40.73 165.72) rotate(-76.33)"/>
    <rect class="cls-2" x="121.08" y="51.09" width="3.27" height="3.27" transform="translate(40.39 157.9) rotate(-75.2)"/>
    <rect class="cls-2" x="128.94" y="47.43" width="2.88" height="2.88" transform="translate(-4.83 82.09) rotate(-34.35)"/>
    <rect class="cls-2" x="127.59" y="51.87" width="2.99" height="2.99" transform="translate(24.82 146.32) rotate(-64.18)"/>
    <rect class="cls-2" x="121.46" y="59.73" width="3.25" height="3.25" transform="matrix(0.96, -0.27, 0.27, 0.96, -11.88, 34.94)"/>
    <rect class="cls-2" x="127.82" y="60.46" width="3.45" height="3.45" transform="translate(45.61 178.83) rotate(-79.9)"/>
    <rect class="cls-2" x="129.99" y="55.8" width="3.11" height="3.11" transform="translate(31.72 160.45) rotate(-69.48)"/>
    <rect class="cls-2" x="110.94" y="50.31" width="3.12" height="3.12" transform="translate(-10.99 42.09) rotate(-20.22)"/>
    <rect class="cls-2" x="115.92" y="47.38" width="3.07" height="3.07" transform="translate(27.99 139.39) rotate(-67.93)"/>
  </g>
</svg>
